<?xml version="1.0" encoding="utf-8"?>
<!-- Generator: Adobe Illustrator 26.3.1, SVG Export Plug-In . SVG Version: 6.00 Build 0)  -->
<svg version="1.1" id="Layer_1" xmlns="http://www.w3.org/2000/svg" xmlns:xlink="http://www.w3.org/1999/xlink" x="0px" y="0px"
	 viewBox="0 0 301.7 512" style="enable-background:new 0 0 301.7 512;" xml:space="preserve">
<style type="text/css">
	.st0{fill:#FFE100;}
	.st1{fill:#FFA800;}
	.st2{fill:#FFFFFF;}
</style>
<path class="st0" d="M164.6,173.7v-4.6c0-17.4-14.6-32-32.9-32s-31.1,14.6-31.1,32v77.7V41.1c0-17.4-0.9-32-18.3-32S64,23.8,64,41.1
	v260.6l11.9-10.1L64,301.7c-24.7,17.4-27.4,33.8-27.4,64c0,43,36.6,73.1,36.6,73.1v36.6c0,15.5,11.9,27.4,27.4,27.4h137.1
	c14.6,0,0-11.9,0-27.4v-36.6c26.5-35.7,27.4-43.9,27.4-109.7c0-38.4-11.9-83.2-11.9-83.2V245c5.5-16.5-3.7-34.7-20.1-40.2
	c-16.5-5.5-8.2,3.7-13.7,20.1l6.4-18.3c5.5-16.5-2.7-33.8-19.2-39.3l-1.8-0.9c-16.5-5.5-33.8,2.7-39.3,19.2l-3.7,10.1L164.6,173.7z"
	/>
<path class="st1" d="M292.6,329.1c0-38.4-11.9-83.2-11.9-83.2V245c5.5-16.5-3.7-34.7-20.1-40.2c-8.2-2.7-17.4-1.8-24.7,1.8
	c14.6,7.3,21.9,23.8,16.5,39.3v0.9c0,0,11.9,45.7,11.9,83.2c0,65.8-0.9,75-27.4,109.7v36.6c0,13.7,12.8,25.6,2.7,27.4
	c13.7-0.9,24.7-12.8,24.7-27.4v-36.6C291.7,403.2,292.6,395,292.6,329.1z"/>
<path class="st2" d="M73.1,475.4v-36.6c0,0-36.6-30.2-36.6-73.1c0-30.2,2.7-46.6,27.4-64V41.1c0-15.5,0.9-27.4,11.9-31.1
	c-2.7-0.9-4.6-0.9-7.3-0.9c-17.4,0-32,14.6-32,32v260.6c-24.7,17.4-27.4,33.8-27.4,64c0,43,36.6,73.1,36.6,73.1v36.6
	c0,15.5,11.9,27.4,27.4,27.4h27.4C85,502.9,73.1,491,73.1,475.4z"/>
<path d="M217.6,371.2c-4.6,0-9.1-0.9-13.7-1.8c-10.1-3.7-18.3-11-23.8-21c-4.6-10.1-5.5-21-1.8-31.1l32.9-95.1
	c3.7-10.1,11-18.3,21-23.8c10.1-4.6,21-5.5,31.1-1.8c10.1,3.7,18.3,11,23.8,21c5.5,10.1,5.5,21,1.8,31.1L256,343.8
	c-3.7,10.1-11,18.3-21,23.8C230.4,369.4,224,371.2,217.6,371.2z M250.5,212.1c-3.7,0-7.3,0.9-10.1,2.7c-5.5,2.7-10.1,7.3-11.9,12.8
	l-32.9,95.1c-1.8,5.5-1.8,11.9,0.9,17.4c2.7,5.5,7.3,10.1,12.8,11.9c5.5,1.8,11.9,1.8,17.4-0.9c5.5-2.7,10.1-7.3,11.9-12.8
	l32.9-95.1c1.8-5.5,1.8-11.9-0.9-17.4c-2.7-5.5-7.3-10.1-12.8-11.9C255.1,212.1,253.3,212.1,250.5,212.1z"/>
<path d="M75,386.7c-3.7,0-7.3-1.8-8.2-5.5c-1.8-4.6,0-10.1,4.6-11.9c19.2-8.2,79.5-75,92.3-106.1c2.7-8.2,0.9-18.3-4.6-22.9
	c-7.3-5.5-19.2-3.7-33.8,6.4c-15.5,10.1-53.9,40.2-83.2,62.2c-3.7,2.7-10.1,2.7-12.8-1.8c-2.7-3.7-2.7-10.1,1.8-12.8
	c29.3-21.9,67.7-52.1,84.1-62.2c30.2-20.1,48.5-11,54.9-5.5c11.9,10.1,16.5,27.4,10.1,43.9c-13.7,32.9-75.9,104.2-101.5,115.2
	C76.8,386.7,75.9,386.7,75,386.7z"/>
<path d="M160.9,341.9c-4.6,0-9.1-0.9-12.8-1.8l-1.8-0.9c-6.4-2.7-12.8-6.4-17.4-12.8c-2.7-3.7-2.7-8.2,0-11.9
	c17.4-21,30.2-40.2,34.7-51.2c4.6-11-2.7-28.3-13.7-32.9c-4.6-1.8-6.4-6.4-4.6-11l12.8-36.6c7.3-21,30.2-32,51.2-24.7l1.8,0.9
	c10.1,3.7,18.3,11,22.9,20.1c4.6,10.1,5.5,21,1.8,31.1l-36.6,105.1C192.9,331,177.4,341.9,160.9,341.9z M148.1,320
	c0.9,0.9,2.7,1.8,3.7,1.8l1.8,0.9c11.9,3.7,23.8-1.8,28.3-13.7l36.6-105.1c1.8-5.5,1.8-11.9-0.9-16.5c-2.7-5.5-7.3-9.1-12.8-11
	l-1.8-0.9c-11.9-3.7-23.8,1.8-28.3,13.7l-10.1,29.3c14.6,11.9,22.9,34.7,15.5,52.1C175.5,282.5,163.7,299.9,148.1,320z"/>
<path d="M27.4,41.1C27.4,18.3,45.7,0,68.6,0s41.1,18.3,41.1,41.1v94.2c6.4-4.6,14.6-7.3,22.9-7.3c20.1,0,37.5,14.6,41.1,33.8
	c0.9-0.9,2.7-1.8,4.6-2.7c10.1-4.6,21-5.5,31.1-1.8l1.8,0.9c16.5,5.5,27.4,21,27.4,37.5c8.2-2.7,18.3-2.7,26.5,0
	c21,7.3,32,29.3,26.5,50.3c0.9,11,10.1,49.4,10.1,83.2c0,64-0.9,76.8-27.4,112.5v33.8c0,21-15.5,36.6-35.7,36.6H73.1
	c-20.1,0-36.6-16.5-36.6-36.6v-32.9C26.5,433.4,0,404.1,0,365.7v-0.9c0-28.3,2.7-48.5,27.4-67.7L27.4,41.1L27.4,41.1z M45.7,41.1
	v242.3c3.7-0.9,7.3,0,10.1,2.7c1.8,1.8,1.8,3.7,1.8,5.5c0,2.7-0.9,5.5-3.7,7.3L42.1,309l-0.9,0.9c-21,14.6-22.9,27.4-22.9,55.8v0.9
	c0.9,37.5,32.9,64.9,32.9,64.9c2.7,1.8,3.7,4.6,3.7,7.3v36.6c0,10.1,8.2,18.3,18.3,18.3h165.5c10.1,0,17.4-8.2,17.4-18.3v-35.7
	c0-1.8,0-4.6,1.8-6.4c24.7-32.9,25.6-40.2,25.6-104.2c0-36.6-11.9-80.5-11.9-80.5c-0.9-1.8,0-3.7,0-5.5c4.6-12.8-1.8-25.6-13.7-29.3
	c-5.5-1.8-11.9-1.8-17.4,0.9c-5.5,2.7-10.1,7.3-11.9,12.8c-1.8,4.6-6.4,7.3-11.9,5.5c-4.6-1.8-7.3-6.4-5.5-11.9l6.4-18.3
	c3.7-11.9-1.8-23.8-13.7-28.3l-1.8-0.9c-5.5-1.8-11.9-1.8-16.5,0.9c-5.5,2.7-9.1,7.3-11,12.8l-3.7,10.1c-1.8,4.6-6.4,7.3-11,6.4
	s-7.3-5.5-7.3-10.1l2.7-21v-3.7c0-12.8-11-22.9-23.8-22.9c-6.4,0-11.9,2.7-16.5,6.4c-3.7,3.7-6.4,9.1-6.4,14.6v78.6
	c0,5.5-3.7,9.1-9.1,9.1s-9.1-3.7-9.1-9.1v-77.7c0-0.9,0-0.9,0-1.8V40.2c0.9-11.9-9.1-21.9-21.9-21.9S45.7,28.3,45.7,41.1"/>
</svg>
