<svg width="1000" height="138" viewBox="0 0 1000 138" fill="none" xmlns="http://www.w3.org/2000/svg">
<g clip-path="url(#clip0_1_12)">
<path d="M103.996 4.62009L101.216 19.4001C100.986 20.4501 100.406 21.3801 99.5859 22.0701C98.7659 22.7501 97.7359 23.1401 96.6559 23.1701H48.0159C46.9459 23.2101 45.9159 23.6001 45.0859 24.2801C44.2559 24.9601 43.6859 25.9001 43.4459 26.9501L38.3159 53.6801C38.2059 54.1401 38.2059 54.6301 38.3059 55.0901C38.4159 55.5501 38.6259 55.9901 38.9259 56.3501C39.2259 56.7201 39.6159 57.0101 40.0459 57.2001C40.4859 57.3901 40.9559 57.4801 41.4359 57.4601H88.0359C88.5059 57.4401 88.9859 57.5201 89.4159 57.7201C89.8459 57.9101 90.2359 58.2001 90.5359 58.5701C90.8359 58.9401 91.0459 59.3701 91.1559 59.8301C91.2559 60.2901 91.256 60.7701 91.146 61.2301L88.2159 76.0301C87.9659 77.0801 87.3859 78.0101 86.5559 78.7001C85.7259 79.3901 84.6959 79.7801 83.6159 79.8201H37.1159C36.0459 79.8501 35.0159 80.2401 34.1859 80.9301C33.3559 81.6101 32.7859 82.5501 32.5459 83.6001L27.2359 111C27.1259 111.46 27.1259 111.94 27.2259 112.41C27.3359 112.87 27.5459 113.31 27.8459 113.67C28.1459 114.04 28.5359 114.33 28.9659 114.52C29.3959 114.71 29.8759 114.8 30.3459 114.78H78.7259C79.2059 114.76 79.6759 114.85 80.1159 115.04C80.5459 115.23 80.9359 115.52 81.2359 115.89C81.5359 116.26 81.7559 116.69 81.8659 117.15C81.9759 117.61 81.9759 118.1 81.8659 118.56L79.0859 133.36C78.8559 134.41 78.2859 135.35 77.4559 136.03C76.6259 136.72 75.5959 137.11 74.5259 137.14H2.60594C2.12594 137.16 1.65593 137.07 1.22593 136.88C0.795934 136.69 0.405939 136.4 0.105939 136.03C-0.194061 135.66 -0.404056 135.23 -0.514056 134.77C-0.624056 134.31 -0.614077 133.82 -0.504077 133.36L24.3659 4.61008C24.6059 3.56008 25.1759 2.6201 26.0059 1.9401C26.8359 1.2601 27.8659 0.860089 28.9359 0.830089H100.876C101.356 0.810089 101.826 0.900099 102.266 1.0901C102.706 1.2801 103.086 1.5701 103.386 1.9401C103.686 2.3101 103.906 2.74011 104.016 3.20011C104.106 3.68011 104.106 4.16009 103.996 4.62009Z" fill="white"/>
<path d="M236.954 4.61301L212.074 133.363C211.834 134.413 211.264 135.353 210.434 136.033C209.604 136.713 208.574 137.113 207.504 137.143H191.754C191.284 137.163 190.804 137.073 190.374 136.883C189.944 136.693 189.554 136.393 189.254 136.033C188.954 135.663 188.744 135.233 188.634 134.773C188.524 134.313 188.534 133.823 188.644 133.363L198.254 83.603C198.364 83.143 198.364 82.663 198.264 82.193C198.154 81.733 197.944 81.303 197.644 80.933C197.344 80.563 196.954 80.273 196.524 80.083C196.094 79.893 195.614 79.803 195.144 79.823H158.584C157.514 79.863 156.484 80.253 155.654 80.933C154.824 81.613 154.244 82.553 154.014 83.603L144.404 133.363C144.164 134.413 143.584 135.353 142.754 136.033C141.924 136.713 140.894 137.113 139.824 137.143H124.294C123.814 137.163 123.344 137.073 122.914 136.883C122.474 136.693 122.094 136.403 121.794 136.033C121.494 135.663 121.274 135.233 121.164 134.773C121.054 134.313 121.054 133.823 121.164 133.363L145.824 4.61301C146.064 3.56301 146.634 2.62303 147.464 1.94303C148.294 1.26303 149.324 0.863019 150.394 0.833019H166.144C166.614 0.813019 167.094 0.903029 167.524 1.09303C167.954 1.28303 168.344 1.58303 168.644 1.94303C168.944 2.31303 169.154 2.74301 169.264 3.20301C169.374 3.66301 169.364 4.14301 169.254 4.61301L159.784 53.683C159.674 54.143 159.674 54.623 159.774 55.093C159.884 55.553 160.094 55.993 160.394 56.353C160.694 56.723 161.074 57.013 161.514 57.203C161.944 57.393 162.424 57.483 162.894 57.463H203.294L213.484 4.61301C213.724 3.56301 214.304 2.62303 215.134 1.94303C215.964 1.26303 216.994 0.863019 218.064 0.833019H233.814C234.294 0.803019 234.764 0.893019 235.204 1.08302C235.644 1.27302 236.024 1.56302 236.334 1.93302C236.644 2.30302 236.854 2.73301 236.964 3.20301C237.074 3.67301 237.064 4.15301 236.954 4.61301Z" fill="white"/>
<path d="M335.925 0.827354H283.575C282.505 0.867354 281.475 1.25735 280.645 1.94735C279.815 2.62735 279.245 3.56737 279.005 4.61737L268.815 55.8874L264.455 78.5274L254.125 133.357C254.015 133.817 254.015 134.297 254.115 134.767C254.225 135.227 254.435 135.657 254.735 136.027C255.035 136.397 255.415 136.687 255.855 136.877C256.285 137.067 256.755 137.167 257.235 137.147H272.985C274.055 137.107 275.095 136.717 275.915 136.037C276.745 135.357 277.325 134.417 277.555 133.367L287.665 79.7674H322.835C341.645 79.7674 358.465 64.4774 361.995 45.6974L364.245 35.1174C367.785 16.3174 354.735 0.827354 335.925 0.827354ZM341.025 34.6674L338.365 46.1274C337.265 52.3174 329.525 57.4074 323.325 57.4074H295.845C295.375 57.4374 294.895 57.3474 294.465 57.1574C294.025 56.9674 293.645 56.6774 293.345 56.3074C293.045 55.9374 292.835 55.5074 292.725 55.0474C292.625 54.5874 292.625 54.1074 292.745 53.6474L298.245 26.9474C298.485 25.8974 299.075 24.9674 299.905 24.2774C300.735 23.5974 301.765 23.2074 302.845 23.1674H333.495C339.695 23.1674 342.125 28.4774 341.025 34.6674Z" fill="white"/>
<path d="M486.458 4.61035L483.678 19.3903C483.448 20.4303 482.868 21.3703 482.048 22.0503C481.228 22.7303 480.198 23.1203 479.128 23.1603H430.508C429.438 23.2003 428.408 23.5903 427.578 24.2703C426.748 24.9503 426.168 25.8903 425.928 26.9403L420.758 53.6703C420.648 54.1303 420.638 54.6103 420.748 55.0803C420.858 55.5403 421.068 55.9803 421.368 56.3403C421.668 56.7103 422.048 57.0003 422.488 57.1903C422.918 57.3803 423.398 57.4703 423.868 57.4503H470.478C470.948 57.4303 471.428 57.5103 471.858 57.7103C472.288 57.9003 472.678 58.1903 472.978 58.5603C473.278 58.9303 473.488 59.3603 473.598 59.8203C473.698 60.2803 473.698 60.7603 473.578 61.2203L470.648 76.0203C470.408 77.0703 469.828 78.0103 468.998 78.6903C468.168 79.3703 467.138 79.7703 466.058 79.8003H419.568C418.498 79.8303 417.458 80.2203 416.628 80.9103C415.798 81.5903 415.218 82.5303 414.978 83.5803L409.688 110.98C409.578 111.44 409.578 111.92 409.678 112.39C409.788 112.85 409.998 113.29 410.298 113.65C410.598 114.02 410.978 114.31 411.418 114.5C411.848 114.69 412.328 114.78 412.798 114.77H461.188C461.658 114.75 462.138 114.84 462.568 115.04C462.998 115.23 463.388 115.52 463.688 115.89C463.988 116.26 464.208 116.69 464.318 117.15C464.428 117.61 464.428 118.09 464.318 118.56L461.538 133.36C461.308 134.41 460.738 135.35 459.908 136.03C459.088 136.71 458.058 137.11 456.978 137.14H385.038C384.558 137.16 384.088 137.07 383.648 136.88C383.208 136.69 382.828 136.4 382.528 136.03C382.228 135.66 382.008 135.23 381.908 134.77C381.798 134.31 381.798 133.82 381.908 133.36L406.768 4.61035C407.008 3.56035 407.588 2.62036 408.418 1.94036C409.248 1.26036 410.278 0.860345 411.358 0.830345H483.298C483.778 0.810345 484.248 0.890344 484.688 1.08035C485.128 1.27035 485.508 1.56035 485.818 1.93035C486.128 2.30035 486.338 2.73034 486.448 3.20034C486.578 3.67034 486.578 4.15035 486.458 4.61035Z" fill="white"/>
<path d="M586.025 118.56L583.244 133.36C583.014 134.41 582.434 135.35 581.614 136.03C580.794 136.71 579.764 137.11 578.694 137.14H506.744C506.274 137.16 505.794 137.07 505.364 136.88C504.934 136.69 504.544 136.4 504.244 136.03C503.944 135.66 503.734 135.23 503.624 134.77C503.514 134.31 503.524 133.82 503.634 133.36L528.494 4.61008C528.734 3.56008 529.314 2.6201 530.134 1.9401C530.964 1.2601 531.994 0.860089 533.064 0.830089H548.814C549.294 0.810089 549.764 0.900098 550.194 1.0901C550.624 1.2801 551.014 1.5701 551.314 1.9401C551.614 2.3101 551.834 2.74008 551.934 3.20008C552.044 3.66008 552.034 4.15008 551.924 4.61008L530.614 114.78H582.854C583.334 114.76 583.804 114.84 584.244 115.04C584.684 115.23 585.064 115.52 585.374 115.89C585.684 116.26 585.894 116.69 586.004 117.15C586.134 117.62 586.135 118.1 586.025 118.56Z" fill="white"/>
<path d="M700.8 34.9073H688.07C684.46 34.9073 683.4 33.0873 683.13 30.0173C682.77 26.0773 680.62 23.1873 676.15 23.1873H656.9C650.7 23.1873 642.29 28.7173 640.96 34.9073C640.8 35.7973 640.71 36.2373 640.53 37.1173C639.86 41.0973 640.32 45.3073 643.41 47.0673C660.4 56.7973 668.89 59.6273 685.88 69.3373C695.83 75.1173 698.48 84.2174 696.07 96.6273C695.45 99.6173 695.14 101.127 694.52 104.137C690.98 122.727 674.39 137.127 655.61 137.127H632.6C615.46 137.127 602.59 124.227 603.12 107.697C603.23 104.197 605.22 102.797 608.61 102.797H621.15C625.09 102.797 626.5 104.627 626.96 107.697C627.58 111.727 630.09 114.757 634.58 114.757H656.48C662.67 114.757 670.43 108.987 671.54 102.797C672.07 100.317 672.32 99.0873 672.86 96.6173C673.74 92.4073 673.08 88.6273 669.76 86.6273C652.86 76.8074 644.4 73.9573 627.51 64.1273C617.56 58.3773 614.67 49.4874 617.11 37.0974C617.29 36.2174 617.37 35.7773 617.57 34.8873C621.29 16.0973 638.1 0.827354 656.91 0.827354H677.47C694.61 0.827354 707.66 13.5273 707 30.0073C706.86 33.1873 704.43 34.9073 700.8 34.9073Z" fill="white"/>
<path d="M834.728 4.62031L815.438 103.79C811.888 121.5 794.638 137.01 776.728 137.01H752.638C734.058 137.01 721.228 121.3 724.548 102.91L743.638 4.62031C743.868 3.58031 744.438 2.64031 745.258 1.96031C746.078 1.28031 747.098 0.880315 748.168 0.840315H763.918C764.388 0.820315 764.868 0.910323 765.298 1.10032C765.728 1.29032 766.118 1.58033 766.418 1.95033C766.718 2.32033 766.928 2.75031 767.038 3.21031C767.148 3.67031 767.138 4.15031 767.028 4.62031L747.728 103.35C746.628 109.33 747.958 114.64 754.148 114.64H789.818L811.298 4.61033C811.538 3.56033 812.118 2.63032 812.948 1.94032C813.778 1.26032 814.808 0.870335 815.878 0.830335H831.598C832.078 0.810335 832.548 0.890313 832.988 1.09031C833.428 1.28031 833.808 1.57032 834.108 1.94032C834.408 2.31032 834.628 2.74033 834.728 3.20033C834.838 3.67033 834.838 4.16031 834.728 4.62031Z" fill="white"/>
<path d="M1000.33 4.39736L948.861 133.327C948.391 134.347 947.661 135.217 946.731 135.847C945.801 136.477 944.721 136.837 943.601 136.897H921.901C920.871 136.877 919.881 136.477 919.121 135.767C918.371 135.057 917.911 134.097 917.831 133.057L913.811 68.0674L884.671 133.387C884.151 134.387 883.381 135.247 882.431 135.857C881.481 136.477 880.391 136.827 879.261 136.887H857.581C856.551 136.887 855.571 136.477 854.841 135.767C854.111 135.047 853.691 134.067 853.671 133.047L851.811 4.65737C851.801 4.15737 851.901 3.65738 852.091 3.19738C852.281 2.73738 852.561 2.30736 852.911 1.95736C853.261 1.59736 853.681 1.31737 854.141 1.12737C854.601 0.937372 855.101 0.837363 855.601 0.837363H872.201C873.211 0.837363 874.191 1.24736 874.911 1.95736C875.631 2.66736 876.041 3.63737 876.051 4.65737L876.251 98.1374C876.251 100.247 876.941 100.387 877.791 98.4574L918.671 4.35736C919.181 3.34736 919.941 2.48737 920.891 1.86737C921.841 1.24737 922.931 0.897363 924.061 0.837363H940.011C942.111 0.837363 943.151 2.40737 942.281 4.33737L934.351 22.1174L938.001 98.1474C938.111 100.237 938.821 100.367 939.591 98.3874L976.311 4.39736C976.771 3.37736 977.501 2.50737 978.431 1.87737C979.351 1.24737 980.431 0.887354 981.551 0.827354H997.941C1000.05 0.837354 1001.12 2.43736 1000.33 4.39736Z" fill="white"/>
</g>
<defs>
<clipPath id="clip0_1_12">
<rect width="1000" height="138" fill="white"/>
</clipPath>
</defs>
</svg>
