<svg width="654" height="79" viewBox="0 0 654 79" fill="none" xmlns="http://www.w3.org/2000/svg">
<path d="M150.08 74.3209C149.524 74.3209 149.101 73.8219 149.192 73.2735L160.738 3.72803C160.81 3.2938 161.185 2.97543 161.626 2.97543H189.011C194.399 2.97543 198.823 4.00891 202.283 6.07589C205.767 8.11964 208.206 10.9646 209.599 14.6109C211.016 18.2339 211.341 22.4143 210.575 27.1521C209.785 31.9131 208.066 36.1051 205.419 39.7281C202.794 43.3279 199.38 46.138 195.177 48.1586C190.973 50.1791 186.119 51.1894 180.615 51.1894H162.674L164.66 39.101H180.162C183.088 39.101 185.585 38.6017 187.652 37.6031C189.742 36.5812 191.403 35.1761 192.634 33.3878C193.865 31.5763 194.666 29.4977 195.037 27.1521C195.432 24.7599 195.304 22.6814 194.654 20.9163C194.004 19.1512 192.808 17.781 191.066 16.8056C189.347 15.8069 187.037 15.3076 184.134 15.3076H173.961L164.228 73.5692C164.156 74.003 163.78 74.3209 163.34 74.3209H150.08Z" fill="white"/>
<path d="M212.534 74.3209C211.978 74.3209 211.555 73.8219 211.646 73.2735L223.192 3.72803C223.264 3.2938 223.639 2.97543 224.079 2.97543H237.34C237.895 2.97543 238.318 3.47415 238.227 4.02245L228.647 61.8842H258.169C258.726 61.8842 259.149 62.3844 259.057 62.9334L257.269 73.5701C257.196 74.0035 256.821 74.3209 256.382 74.3209H212.534Z" fill="white"/>
<path d="M318.077 3.7278C318.149 3.29368 318.525 2.97543 318.965 2.97543H332.225C332.781 2.97543 333.204 3.47405 333.113 4.0223L325.622 49.3082C324.763 54.5104 322.777 59.0624 319.665 62.9641C316.553 66.8658 312.593 69.9082 307.786 72.0913C302.979 74.2512 297.614 75.3311 291.691 75.3311C285.769 75.3311 280.776 74.2512 276.712 72.0913C272.647 69.9082 269.71 66.8658 267.898 62.9641C266.087 59.0624 265.61 54.5104 266.47 49.3082L274.009 3.72855C274.081 3.29408 274.457 2.97543 274.897 2.97543H288.156C288.712 2.97543 289.135 3.47457 289.044 4.02305L281.728 48.0192C281.31 50.7365 281.519 53.1518 282.355 55.2652C283.215 57.3787 284.631 59.0392 286.605 60.2469C288.579 61.4545 291.018 62.0584 293.921 62.0584C296.847 62.0584 299.495 61.4545 301.864 60.2469C304.256 59.0392 306.218 57.3787 307.751 55.2652C309.307 53.1518 310.294 50.7365 310.712 48.0192L318.077 3.7278Z" fill="white"/>
<path d="M379.811 23.7032C379.299 23.7032 378.895 23.2771 378.877 22.7663C378.791 20.3136 377.942 18.3847 376.331 16.9798C374.542 15.4005 371.837 14.6109 368.214 14.6109C365.752 14.6109 363.615 14.9592 361.804 15.656C359.992 16.3295 358.541 17.2701 357.449 18.4777C356.381 19.6622 355.719 21.0324 355.464 22.5885C355.208 23.8658 355.289 24.9806 355.707 25.9328C356.149 26.885 356.834 27.7095 357.763 28.4062C358.715 29.0797 359.841 29.6719 361.142 30.1829C362.443 30.6706 363.824 31.0886 365.288 31.437L371.419 32.9698C374.415 33.6665 377.109 34.5955 379.501 35.7567C381.916 36.9179 383.937 38.3462 385.562 40.0416C387.211 41.737 388.373 43.7343 389.046 46.0335C389.72 48.3327 389.813 50.9687 389.325 53.9414C388.582 58.3076 386.851 62.0932 384.134 65.2982C381.417 68.4799 377.852 70.9533 373.439 72.7184C369.027 74.4602 363.917 75.3311 358.111 75.3311C352.352 75.3311 347.486 74.4486 343.515 72.6836C339.543 70.9185 336.652 68.3058 334.84 64.8453C333.143 61.5388 332.575 57.4896 333.138 52.6977C333.19 52.252 333.572 51.9209 334.02 51.9209H346.833C347.368 51.9209 347.781 52.3851 347.762 52.9196C347.69 54.8743 348.063 56.5387 348.879 57.9128C349.855 59.4921 351.306 60.6881 353.234 61.501C355.162 62.2906 357.426 62.6854 360.027 62.6854C362.605 62.6854 364.893 62.3139 366.89 61.5707C368.911 60.8275 370.548 59.794 371.802 58.4702C373.056 57.1464 373.823 55.6252 374.101 53.9066C374.38 52.3041 374.136 50.9571 373.37 49.8656C372.603 48.774 371.372 47.845 369.677 47.0786C368.005 46.289 365.926 45.5923 363.441 44.9884L355.986 43.0376C350.226 41.5744 345.872 39.2868 342.922 36.1748C339.973 33.0627 338.916 28.8707 339.752 23.5987C340.495 19.279 342.295 15.505 345.152 12.2768C348.032 9.02539 351.655 6.50554 356.021 4.71726C360.41 2.90575 365.206 2 370.409 2C375.704 2 380.174 2.91737 383.821 4.7521C387.467 6.5636 390.126 9.09507 391.798 12.3465C393.371 15.4038 393.916 18.9335 393.435 22.9355C393.382 23.3776 393.002 23.7032 392.556 23.7032H379.811Z" fill="white"/>
<path d="M429.379 73.8185C429.228 74.1261 428.915 74.3209 428.572 74.3209H414.439C413.766 74.3209 413.331 73.6101 413.637 73.0112L449.191 3.46575C449.345 3.1648 449.654 2.97543 449.992 2.97543H468.127C468.563 2.97543 468.936 3.28792 469.013 3.7171L481.442 73.2626C481.54 73.8142 481.116 74.3209 480.556 74.3209H466.236C465.793 74.3209 465.416 73.9986 465.347 73.561L456.792 19.279H456.235L429.379 73.8185ZM432.825 46.2774H471.006L468.985 58.0522H430.804L432.825 46.2774Z" fill="white"/>
<path d="M519.928 2.97543C520.484 2.97543 520.907 3.47441 520.816 4.02282L509.27 73.5683C509.198 74.0025 508.823 74.3209 508.382 74.3209H495.123C494.567 74.3209 494.144 73.8219 494.235 73.2735L505.781 3.72803C505.853 3.2938 506.228 2.97543 506.668 2.97543H519.928Z" fill="white"/>
<path d="M527.361 74.3209C526.805 74.3209 526.382 73.8219 526.473 73.2735L538.018 3.72803C538.09 3.2938 538.466 2.97543 538.906 2.97543H566.291C571.679 2.97543 576.115 3.92763 579.599 5.83203C583.106 7.73643 585.568 10.4421 586.984 13.949C588.424 17.4326 588.761 21.5434 587.995 26.2811C587.205 31.0189 585.498 35.0832 582.874 38.474C580.272 41.8647 576.882 44.4775 572.701 46.3122C568.544 48.1237 563.725 49.0295 558.244 49.0295H539.397L541.488 36.9063H557.861C560.741 36.9063 563.202 36.5115 565.246 35.7219C567.29 34.9322 568.904 33.7478 570.089 32.1685C571.296 30.5893 572.086 28.6268 572.457 26.2811C572.852 23.889 572.713 21.8917 572.039 20.2892C571.366 18.6635 570.147 17.4326 568.382 16.5966C566.616 15.7373 564.294 15.3076 561.414 15.3076H551.242L541.509 73.5692C541.436 74.003 541.061 74.3209 540.621 74.3209H527.361ZM570.193 41.8531L582.095 73.1005C582.32 73.6896 581.885 74.3209 581.254 74.3209H566.535C566.158 74.3209 565.821 74.0861 565.691 73.7325L553.924 41.8531H570.193Z" fill="white"/>
<path d="M595.257 74.3209C594.701 74.3209 594.278 73.8219 594.369 73.2735L605.914 3.72803C605.986 3.2938 606.362 2.97543 606.802 2.97543H653.05C653.607 2.97543 654.03 3.47565 653.937 4.0246L652.15 14.6613C652.077 15.0947 651.702 15.4121 651.262 15.4121H619.033L616.246 32.4124H645.699C646.256 32.4124 646.679 32.9126 646.587 33.4616L644.799 44.0982C644.726 44.5317 644.351 44.8491 643.912 44.8491H614.156L611.369 61.8842H643.435C643.992 61.8842 644.415 62.3844 644.323 62.9334L642.535 73.5701C642.462 74.0035 642.087 74.3209 641.647 74.3209H595.257Z" fill="white"/>
<path d="M43.4577 0H5C2.23858 0 0 2.23858 0 5V74C0 76.7614 2.23858 79 5 79H10.0423L43.4577 0Z" fill="white"/>
<path d="M74.017 79H103C105.761 79 108 76.7614 108 74V5C108 2.23858 105.761 0 103 0H87.4829L74.017 79Z" fill="white"/>
</svg>
